<svg width="19" height="18" viewBox="0 0 19 18" fill="none" xmlns="http://www.w3.org/2000/svg">
<path fill-rule="evenodd" clip-rule="evenodd" d="M13.5 0C14.8261 0 16.0979 0.526784 17.0355 1.46447C17.9732 2.40215 18.5 3.67392 18.5 5V13C18.5 14.3261 17.9732 15.5979 17.0355 16.5355C16.0979 17.4732 14.8261 18 13.5 18H5.5C4.17392 18 2.90215 17.4732 1.96447 16.5355C1.02678 15.5979 0.5 14.3261 0.5 13V5C0.5 3.67392 1.02678 2.40215 1.96447 1.46447C2.90215 0.526784 4.17392 0 5.5 0H13.5ZM13.5 2H5.5C4.70435 2 3.94129 2.31607 3.37868 2.87868C2.81607 3.44129 2.5 4.20435 2.5 5V13C2.5 13.7956 2.81607 14.5587 3.37868 15.1213C3.94129 15.6839 4.70435 16 5.5 16H13.5C14.2956 16 15.0587 15.6839 15.6213 15.1213C16.1839 14.5587 16.5 13.7956 16.5 13V5C16.5 4.20435 16.1839 3.44129 15.6213 2.87868C15.0587 2.31607 14.2956 2 13.5 2ZM9.5 5C10.5609 5 11.5783 5.42143 12.3284 6.17157C13.0786 6.92172 13.5 7.93913 13.5 9C13.5 10.0609 13.0786 11.0783 12.3284 11.8284C11.5783 12.5786 10.5609 13 9.5 13C8.43913 13 7.42172 12.5786 6.67157 11.8284C5.92143 11.0783 5.5 10.0609 5.5 9C5.5 7.93913 5.92143 6.92172 6.67157 6.17157C7.42172 5.42143 8.43913 5 9.5 5ZM9.5 7C8.96957 7 8.46086 7.21071 8.08579 7.58579C7.71071 7.96086 7.5 8.46957 7.5 9C7.5 9.53043 7.71071 10.0391 8.08579 10.4142C8.46086 10.7893 8.96957 11 9.5 11C10.0304 11 10.5391 10.7893 10.9142 10.4142C11.2893 10.0391 11.5 9.53043 11.5 9C11.5 8.46957 11.2893 7.96086 10.9142 7.58579C10.5391 7.21071 10.0304 7 9.5 7ZM14 3.5C14.2652 3.5 14.5196 3.60536 14.7071 3.79289C14.8946 3.98043 15 4.23478 15 4.5C15 4.76522 14.8946 5.01957 14.7071 5.20711C14.5196 5.39464 14.2652 5.5 14 5.5C13.7348 5.5 13.4804 5.39464 13.2929 5.20711C13.1054 5.01957 13 4.76522 13 4.5C13 4.23478 13.1054 3.98043 13.2929 3.79289C13.4804 3.60536 13.7348 3.5 14 3.5Z" fill="white"/>
</svg>
