<svg width="21" height="19" viewBox="0 0 21 19" fill="none" xmlns="http://www.w3.org/2000/svg">
<path d="M9.99087 18.713L9.97215 18.7138C9.91425 18.7126 9.85782 18.6953 9.80918 18.6639L9.80996 18.6647C9.61423 18.511 9.68597 18.1375 9.76863 17.7047C9.86352 17.349 9.88946 16.9785 9.84505 16.613L9.84661 16.6271C9.81008 16.444 9.71587 16.2775 9.57778 16.1519C9.43969 16.0263 9.26499 15.9482 9.0793 15.9292H9.0754C7.80354 15.7916 6.56341 15.4435 5.40573 14.8991L5.47669 14.9287C4.97661 14.6973 4.49623 14.4256 4.04032 14.1162L4.07697 14.1396C3.64553 13.8505 3.2389 13.526 2.86129 13.1695L2.86597 13.1734C2.50727 12.835 2.1821 12.4695 1.89046 12.077L1.87486 12.0544C1.59498 11.6775 1.35237 11.2743 1.15044 10.8504L1.13094 10.806C0.71248 9.93143 0.496838 8.97371 0.500097 8.00421C0.500097 7.43184 0.573397 6.87664 0.712199 6.34716L0.702062 6.39239C0.839479 5.85698 1.04109 5.34014 1.3025 4.85309L1.28456 4.88974C1.54652 4.40196 1.85968 3.94346 2.21875 3.522L2.21017 3.53214C2.57289 3.10323 2.97579 2.70999 3.41338 2.35778L3.43053 2.34452C3.87778 1.98611 4.35553 1.66753 4.85832 1.3924L4.90979 1.36667C5.42915 1.08345 5.97146 0.844509 6.53096 0.652388L6.60816 0.628994C7.19654 0.425412 7.80126 0.272537 8.4157 0.17204L8.4851 0.162683C9.84426 -0.0575778 11.2303 -0.0541535 12.5883 0.17282L12.515 0.162683C13.234 0.28121 13.8656 0.443405 14.4754 0.653948L14.392 0.628994C15.0525 0.853573 15.6131 1.1031 16.1473 1.39552L16.0904 1.36667C16.6534 1.67313 17.1376 1.99674 17.5891 2.35934L17.5696 2.34452C18.0203 2.70634 18.4196 3.09546 18.7798 3.51966L18.79 3.53214C19.1292 3.92983 19.4349 4.37508 19.6914 4.85075L19.7117 4.8913C19.9464 5.32096 20.1468 5.82003 20.2864 6.34404L20.2973 6.39161C20.4333 6.91858 20.5014 7.46076 20.5 8.00499C20.5016 8.77986 20.364 9.54871 20.0938 10.2749L20.1086 10.2297C19.8447 10.9506 19.4692 11.6255 18.9958 12.2299L19.0075 12.2143C18.9504 12.2956 18.8882 12.3732 18.8212 12.4466L18.8227 12.4451L18.8165 12.4521C18.4827 12.8482 18.1272 13.203 17.7427 13.5259L17.7295 13.5368C16.376 14.7673 14.9377 15.9011 13.425 16.9296L13.2894 17.017C12.68 17.438 12.0487 17.8267 11.3984 18.1812L11.283 18.2389C11.0513 18.3634 10.8128 18.4749 10.5687 18.5726L10.5219 18.589C10.3555 18.6605 10.1779 18.7025 9.99711 18.713H9.99243H9.99087ZM14.6563 5.65783C14.5183 5.65824 14.386 5.71326 14.2885 5.81085C14.1909 5.90845 14.1358 6.04071 14.1354 6.17873V10.0449C14.1358 10.1829 14.1909 10.3152 14.2885 10.4128C14.386 10.5104 14.5183 10.5654 14.6563 10.5658H16.6729C16.8109 10.5654 16.9431 10.5104 17.0407 10.4128C17.1383 10.3152 17.1933 10.1829 17.1938 10.0449V10.0012C17.1933 9.86321 17.1383 9.73096 17.0407 9.63336C16.9431 9.53576 16.8109 9.48075 16.6729 9.48034H15.2201V8.65611H16.6721C16.8101 8.6557 16.9423 8.60068 17.0399 8.50309C17.1375 8.40549 17.1926 8.27323 17.193 8.13521V8.09154C17.1926 7.95352 17.1375 7.82127 17.0399 7.72367C16.9423 7.62607 16.8101 7.57106 16.6721 7.57065H15.2201V6.74485H16.6721C16.8101 6.74444 16.9423 6.68943 17.0399 6.59183C17.1375 6.49423 17.1926 6.36198 17.193 6.22396V6.17951C17.1926 6.04148 17.1375 5.90923 17.0399 5.81163C16.9423 5.71404 16.8101 5.65902 16.6721 5.65861L14.6563 5.65783ZM10.0002 5.64847C9.8622 5.64889 9.72995 5.7039 9.63235 5.8015C9.53475 5.89909 9.47974 6.03135 9.47933 6.16937V10.0355C9.47974 10.1736 9.53475 10.3058 9.63235 10.4034C9.72995 10.501 9.8622 10.556 10.0002 10.5564H10.0439C10.1819 10.556 10.3142 10.501 10.4118 10.4034C10.5094 10.3058 10.5644 10.1736 10.5648 10.0355V7.7227L12.4628 10.3155L12.5018 10.3685L12.501 10.3677C12.551 10.4353 12.6196 10.4871 12.6983 10.5167L12.7014 10.5175C12.7599 10.5424 12.8277 10.5564 12.8987 10.5564H12.9447C13.0305 10.5564 13.1149 10.535 13.1903 10.4941L13.1872 10.4956C13.2356 10.4732 13.2788 10.4411 13.3143 10.4013V10.4005C13.3622 10.3526 13.4001 10.2956 13.4259 10.233C13.4518 10.1704 13.465 10.1033 13.4648 10.0355V6.16937C13.4644 6.03135 13.4094 5.89909 13.3118 5.8015C13.2142 5.7039 13.0819 5.64889 12.9439 5.64847H12.8979C12.7599 5.64889 12.6276 5.7039 12.53 5.8015C12.4324 5.89909 12.3774 6.03135 12.377 6.16937V8.43933L10.4946 5.91204C10.4495 5.83163 10.3838 5.7646 10.3044 5.71776C10.225 5.67092 10.1346 5.64594 10.0423 5.64536L10.0002 5.64847ZM8.18021 5.64847C8.04218 5.64889 7.90993 5.7039 7.81233 5.8015C7.71473 5.89909 7.65972 6.03135 7.65931 6.16937V10.0355C7.65972 10.1736 7.71473 10.3058 7.81233 10.4034C7.90993 10.501 8.04218 10.556 8.18021 10.5564H8.22387C8.3619 10.556 8.49415 10.501 8.59175 10.4034C8.68935 10.3058 8.74436 10.1736 8.74477 10.0355V6.16937C8.74436 6.03135 8.68935 5.89909 8.59175 5.8015C8.49415 5.7039 8.3619 5.64889 8.22387 5.64847H8.18021ZM4.7008 5.64847C4.56278 5.64889 4.43053 5.7039 4.33293 5.8015C4.23533 5.89909 4.18032 6.03135 4.17991 6.16937V10.0355C4.18032 10.1736 4.23533 10.3058 4.33293 10.4034C4.43053 10.501 4.56278 10.556 4.7008 10.5564H6.71577C6.85379 10.556 6.98605 10.501 7.08364 10.4034C7.18124 10.3058 7.23625 10.1736 7.23667 10.0355V9.99656C7.23625 9.85854 7.18124 9.72628 7.08364 9.62868C6.98605 9.53109 6.85379 9.47607 6.71577 9.47566H5.26459V6.17015C5.26418 6.03213 5.20916 5.89987 5.11157 5.80228C5.01397 5.70468 4.88171 5.64967 4.74369 5.64925L4.7008 5.64847Z" fill="white"/>
</svg>
